<?xml version="1.0" encoding="UTF-8" standalone="no"?>
<svg
   xmlns:dc="http://purl.org/dc/elements/1.1/"
   xmlns:cc="http://creativecommons.org/ns#"
   xmlns:rdf="http://www.w3.org/1999/02/22-rdf-syntax-ns#"
   xmlns:svg="http://www.w3.org/2000/svg"
   xmlns="http://www.w3.org/2000/svg"
   xmlns:sodipodi="http://sodipodi.sourceforge.net/DTD/sodipodi-0.dtd"
   xmlns:inkscape="http://www.inkscape.org/namespaces/inkscape"
   width="48"
   height="48"
   viewBox="0 0 48 48"
   id="svg2"
   version="1.1"
   inkscape:version="0.91 r13725"
   sodipodi:docname="shield.svg">
  <metadata
     id="metadata10">
    <rdf:RDF>
      <cc:Work
         rdf:about="">
        <dc:format>image/svg+xml</dc:format>
        <dc:type
           rdf:resource="http://purl.org/dc/dcmitype/StillImage" />
      </cc:Work>
    </rdf:RDF>
  </metadata>
  <defs
     id="defs8" />
  <sodipodi:namedview
     pagecolor="#ffffff"
     bordercolor="#666666"
     borderopacity="1"
     objecttolerance="10"
     gridtolerance="10"
     guidetolerance="10"
     inkscape:pageopacity="0"
     inkscape:pageshadow="2"
     inkscape:window-width="1366"
     inkscape:window-height="705"
     id="namedview6"
     showgrid="false"
     inkscape:zoom="4.9166667"
     inkscape:cx="24"
     inkscape:cy="48.40678"
     inkscape:window-x="-8"
     inkscape:window-y="32"
     inkscape:window-maximized="1"
     inkscape:current-layer="svg2" />
  <path
     d="m 40.9,16.2 c 0.3,-3.4 1.3,-6.6 3.2,-9.5 L 37.1,0 C 34.9,1.8 32.3,2.8 29.5,3 26.9,3.2 24.4,2.8 22,1.6 19.6,2.7 17.1,3.2 14.5,3 11.8,2.8 9.4,1.9 7.2,0.3 L 0.1,7 C 1.8,9.9 2.8,13 3,16.2 3.1,17.7 2.7,19.7 1.7,22.3 1.2,23.8 0.8,25 0.5,26.1 0.3,27.1 0.1,28 0,28.6 c 0,2.8 0.8,5.3 2.5,7.5 1.3,1.6 3.5,3.4 6.5,5.4 3.3,1.6 5.8,2.6 7.6,3.1 0.5,0.2 1,0.4 1.5,0.7 l 1.5,0.6 c 1.2,0.7 2,1.4 2.4,2.1 0.5,-0.8 1.3,-1.5 2.4,-2.1 0.7,-0.3 1.3,-0.5 1.9,-0.8 0.5,-0.2 0.9,-0.4 1.1,-0.5 0.4,-0.1 0.9,-0.3 1.5,-0.6 0.6,-0.2 1.3,-0.5 2.2,-0.8 1.7,-0.6 3,-1.1 3.8,-1.6 2.9,-2 5.1,-3.8 6.4,-5.3 1.7,-2.2 2.6,-4.8 2.5,-7.6 -0.1,-1.3 -0.7,-3.3 -1.7,-6.1 -0.9,-2.8 -1.3,-4.9 -1.2,-6.4 z"
     id="path4"
     inkscape:connector-curvature="0" />
</svg>
