<?xml version="1.0" encoding="UTF-8" standalone="no"?>
<svg
   xmlns:dc="http://purl.org/dc/elements/1.1/"
   xmlns:cc="http://creativecommons.org/ns#"
   xmlns:rdf="http://www.w3.org/1999/02/22-rdf-syntax-ns#"
   xmlns:svg="http://www.w3.org/2000/svg"
   xmlns="http://www.w3.org/2000/svg"
   xmlns:sodipodi="http://sodipodi.sourceforge.net/DTD/sodipodi-0.dtd"
   xmlns:inkscape="http://www.inkscape.org/namespaces/inkscape"
   width="48"
   height="48"
   viewBox="0 0 48 48"
   id="svg2"
   version="1.1"
   inkscape:version="0.91 r13725"
   sodipodi:docname="route.svg">
  <metadata
     id="metadata10">
    <rdf:RDF>
      <cc:Work
         rdf:about="">
        <dc:format>image/svg+xml</dc:format>
        <dc:type
           rdf:resource="http://purl.org/dc/dcmitype/StillImage" />
      </cc:Work>
    </rdf:RDF>
  </metadata>
  <defs
     id="defs8" />
  <sodipodi:namedview
     pagecolor="#ffffff"
     bordercolor="#666666"
     borderopacity="1"
     objecttolerance="10"
     gridtolerance="10"
     guidetolerance="10"
     inkscape:pageopacity="0"
     inkscape:pageshadow="2"
     inkscape:window-width="1366"
     inkscape:window-height="705"
     id="namedview6"
     showgrid="false"
     inkscape:zoom="4.9166667"
     inkscape:cx="-6.4067795"
     inkscape:cy="40.271186"
     inkscape:window-x="-8"
     inkscape:window-y="32"
     inkscape:window-maximized="1"
     inkscape:current-layer="svg2" />
  <path
     d="M 46.995356,19.46875 C 46.807518,7 39.575761,2.125 39.200085,1.9375 l -1.127027,-0.75 -1.127027,0.75 c -1.878378,1.3125 -3.850676,1.875 -5.729054,1.875 -3.193244,0 -5.447298,-1.78125 -5.541217,-1.78125 L 24.454814,1 23.233868,2.03125 C 23.139948,2.125 20.885895,3.8125 17.692651,3.8125 c -1.972297,0 -3.850676,-0.65625 -5.729054,-1.875 l -1.127028,-0.75 -1.127027,0.75 C 8.958191,2.5 2.1960283,7.4687501 2.0081904,19.46875 1.8203526,20.5 4.7318392,40.28125 24.454814,46 45.962248,39.71875 47.089275,20.78125 46.995356,19.46875 Z"
     id="path4"
     inkscape:connector-curvature="0" />
</svg>
